<?xml version="1.0" standalone="no"?>
<!DOCTYPE svg PUBLIC "-//W3C//DTD SVG 1.1//EN" "http://www.w3.org/Graphics/SVG/1.1/DTD/svg11.dtd" >
<svg xmlns="http://www.w3.org/2000/svg" xmlns:xlink="http://www.w3.org/1999/xlink" version="1.1">
<metadata></metadata>
<defs>
<font id="webfontregular" horiz-adv-x="1126" >
<font-face units-per-em="2048" ascent="1536" descent="-512" />
<missing-glyph horiz-adv-x="499" />
<glyph horiz-adv-x="0" />
<glyph unicode="&#xd;" horiz-adv-x="682" />
<glyph unicode=" "  horiz-adv-x="499" />
<glyph unicode="&#x09;" horiz-adv-x="499" />
<glyph unicode="&#xa0;" horiz-adv-x="499" />
<glyph unicode="!" horiz-adv-x="657" d="M184 133q0 65 46.5 110.5t113.5 45.5q69 0 115.5 -45.5t46.5 -110.5q0 -66 -46.5 -111t-115.5 -45q-68 0 -114 45t-46 111zM193 1450h307l-39 -1065h-225z" />
<glyph unicode="&#x22;" horiz-adv-x="829" d="M90 1438h262l-33 -520h-196zM477 1438h262l-34 -520h-195z" />
<glyph unicode="#" horiz-adv-x="1193" d="M57 365v184h181l32 293h-164v182h183l37 358h209l-39 -358h270l39 358h209l-39 -358h162v-182h-181l-30 -293h164v-184h-185l-37 -365h-209l39 365h-270l-39 -365h-209l39 365h-162zM446 549h271l31 293h-269z" />
<glyph unicode="$" horiz-adv-x="1011" d="M94 905q0 136 89 235.5t235 127.5v207h186v-193q105 -3 209 -25l-16 -223q-125 35 -228 35q-106 0 -155 -38t-49 -99q0 -43 30.5 -75.5t79.5 -55t107.5 -44.5t117.5 -52.5t108 -70t79.5 -105t30.5 -150.5q0 -141 -90.5 -246.5t-247.5 -140.5v-250h-189v235 q-107 2 -248 27l19 238q119 -43 260 -43q102 0 160.5 37.5t58.5 115.5q0 46 -30 79.5t-78.5 56t-106.5 43.5t-116.5 50t-107 68t-78.5 104.5t-30 151.5z" />
<glyph unicode="%" horiz-adv-x="1556" d="M78 1073q0 146 91.5 240t229.5 94q143 0 223 -79.5t80 -233.5q0 -150 -91.5 -245t-229.5 -95q-147 0 -225 84.5t-78 234.5zM180 72l1026 1353l164 -118l-1026 -1352zM279 1083q0 -88 28.5 -126.5t85.5 -38.5q49 0 81 43.5t32 117.5q0 88 -28 126t-87 38 q-49 0 -80.5 -43.5t-31.5 -116.5zM854 297q0 147 91 240.5t229 93.5q144 0 224.5 -80.5t80.5 -235.5q0 -150 -92.5 -244t-229.5 -94q-147 0 -225 84.5t-78 235.5zM1053 307q0 -88 28.5 -127t87.5 -39q47 0 79 44t32 118q0 87 -28 124.5t-85 37.5q-51 0 -82.5 -42.5 t-31.5 -115.5z" />
<glyph unicode="&#x26;" horiz-adv-x="1632" d="M96 383q0 126 66.5 226.5t193.5 199.5q-95 111 -134.5 193.5t-39.5 171.5q0 143 108.5 240t299.5 97q174 0 269 -81.5t95 -219.5q0 -107 -58.5 -202t-184.5 -193q180 -180 370 -328v-2q62 95 94.5 213t28.5 240h260q3 -162 -45 -316t-141 -278q156 -118 268 -192 l-172 -199q-156 107 -280 205q-228 -181 -533 -181q-116 0 -206.5 32.5t-146 89t-84 128.5t-28.5 156zM369 416q0 -89 64.5 -152t172.5 -63q160 0 295 100q-227 185 -391 352q-141 -121 -141 -237zM440 1188q0 -89 117 -225q69 60 104 114t35 115q0 54 -32 88.5t-95 34.5 q-57 0 -93 -35.5t-36 -91.5z" />
<glyph unicode="'" horiz-adv-x="442" d="M90 1438h262l-33 -520h-196z" />
<glyph unicode="(" horiz-adv-x="626" d="M106 584q0 549 306 1028l190 -88q-237 -422 -237 -930q0 -521 243 -942l-198 -92q-163 257 -233.5 509t-70.5 515z" />
<glyph unicode=")" horiz-adv-x="626" d="M27 1522l198 90q161 -257 230 -508.5t69 -513.5q0 -553 -305 -1030l-190 88q239 420 239 932q0 513 -241 942z" />
<glyph unicode="*" horiz-adv-x="786" d="M63 1087l207 82l-207 82l93 162l174 -139l-33 221h186l-32 -221l174 139l92 -160l-207 -82l207 -84l-92 -159l-174 139l32 -221h-186l33 221l-176 -139z" />
<glyph unicode="+" d="M80 500v219h358v379h248v-379h361v-219h-361v-381h-248v381h-358z" />
<glyph unicode="," horiz-adv-x="528" d="M55 -258q69 74 98.5 131.5t24.5 100t-39 83.5q-28 33 -32.5 76.5t11.5 81.5t54.5 64t89.5 26q87 0 134 -76q57 -94 15 -235q-53 -178 -247 -348z" />
<glyph unicode="-" horiz-adv-x="684" d="M90 463v211h504v-211h-504z" />
<glyph unicode="." horiz-adv-x="528" d="M96 145q0 68 49.5 117t118.5 49t118.5 -49t49.5 -117q0 -69 -49.5 -118.5t-118.5 -49.5t-118.5 49.5t-49.5 118.5z" />
<glyph unicode="/" horiz-adv-x="948" d="M-23 -330l717 1880h258l-716 -1880h-259z" />
<glyph unicode="0" horiz-adv-x="1206" d="M74 676q0 178 44 318.5t120 228t173.5 133t209.5 45.5q512 0 512 -694q0 -179 -44 -320t-120 -228t-173.5 -132t-209.5 -45q-261 0 -386.5 175t-125.5 519zM352 692q0 -255 61 -373t187 -118q117 0 185.5 117t68.5 370q0 257 -61 375.5t-187 118.5q-117 0 -185.5 -117.5 t-68.5 -372.5z" />
<glyph unicode="1" horiz-adv-x="735" d="M39 1266l340 116h207v-1382h-271v1110l-237 -94z" />
<glyph unicode="2" horiz-adv-x="1019" d="M102 0v221l207 234q170 185 233.5 303.5t63.5 212.5q0 86 -51 139t-147 53q-125 0 -256 -78l-39 238q164 80 366 80t310 -108.5t108 -278.5q0 -138 -76.5 -287.5t-249.5 -339.5l-122 -143v-2q143 8 489 8v-252h-836z" />
<glyph unicode="3" horiz-adv-x="968" d="M86 6l29 230q80 -29 209 -29q126 0 199 58t73 149q0 88 -73 141t-220 53q-78 0 -143 -10v211q208 -6 301.5 52t93.5 157q0 75 -50 119.5t-145 44.5q-108 0 -227 -58l-20 219q147 60 317 60q192 0 296.5 -92t104.5 -240q0 -112 -59.5 -193.5t-161.5 -119.5l-2 -4 q126 -31 198.5 -118t72.5 -206q0 -200 -157.5 -325t-404.5 -125q-138 0 -231 26z" />
<glyph unicode="4" horiz-adv-x="1134" d="M35 512l504 870h352v-839h207v-240h-207v-303h-258v303h-580zM283 535q90 4 354 4v604h-2z" />
<glyph unicode="5" horiz-adv-x="944" d="M88 4l27 234q77 -27 192 -27q138 0 216.5 63.5t78.5 167.5q0 209 -338 209q-79 0 -131 -8v739h682v-249l-436 2v-275q240 1 370 -101.5t130 -289.5q0 -219 -163.5 -352t-422.5 -133q-113 0 -205 20z" />
<glyph unicode="6" horiz-adv-x="1183" d="M106 580q0 201 55 359.5t152 258.5t225.5 151.5t280.5 51.5q110 0 162 -8v-236q-77 19 -166 19q-329 0 -414 -332q-12 -54 -16 -70l2 -2q113 113 297 113q196 0 310 -113t114 -299q0 -222 -144.5 -359t-375.5 -137q-100 0 -181 32t-136.5 87t-93 132t-54.5 165t-17 187z M393 453q0 -117 57 -184.5t160 -67.5q100 0 160.5 65t60.5 170q0 108 -55.5 170t-159.5 62q-100 0 -161.5 -63t-61.5 -152z" />
<glyph unicode="7" horiz-adv-x="940" d="M45 1126v256h846v-225q-113 -250 -212 -564t-157 -593h-293q62 284 168.5 605.5t198.5 524.5q-156 -4 -551 -4z" />
<glyph unicode="8" horiz-adv-x="1140" d="M86 340q0 200 250 356q-227 129 -227 324q0 178 134.5 284.5t346.5 106.5q195 0 314.5 -96t119.5 -244q0 -107 -62 -186.5t-174 -155.5q125 -70 195 -154.5t70 -199.5q0 -127 -71 -219.5t-184 -136.5t-251 -44q-216 0 -338.5 99.5t-122.5 265.5zM360 365q0 -79 56 -125.5 t155 -46.5q90 0 148.5 44t58.5 119q0 39 -17.5 73t-53.5 63.5t-70.5 50.5t-89.5 49q-93 -60 -140 -110t-47 -117zM375 1047q0 -63 48.5 -111t151.5 -102q94 59 137.5 108.5t43.5 106.5q0 64 -48 107.5t-139 43.5q-92 0 -143 -42t-51 -111z" />
<glyph unicode="9" horiz-adv-x="1189" d="M86 907q0 215 142.5 356.5t363.5 141.5q104 0 188 -32t140.5 -87.5t94 -132.5t54 -163.5t16.5 -184.5q0 -396 -185.5 -610.5t-539.5 -214.5q-104 0 -184 14v237q91 -26 205 -26q304 0 381 293q7 20 15 54.5t11 43.5l-2 2q-41 -51 -115 -83t-169 -32q-191 0 -303.5 115 t-112.5 309zM358 942q0 -105 55.5 -167t157.5 -62q96 0 158 65.5t62 145.5q0 122 -57 189t-156 67q-97 0 -158.5 -65.5t-61.5 -172.5z" />
<glyph unicode=":" horiz-adv-x="610" d="M162 145q0 68 49.5 117t118.5 49t117.5 -49t48.5 -117q0 -69 -48.5 -118.5t-117.5 -49.5t-118.5 49.5t-49.5 118.5zM162 725q0 68 49.5 117t118.5 49t117.5 -49t48.5 -117q0 -69 -48.5 -118.5t-117.5 -49.5t-118.5 49.5t-49.5 118.5z" />
<glyph unicode=";" horiz-adv-x="610" d="M123 -258q68 74 97 131.5t24.5 100t-37.5 83.5q-28 33 -32.5 76.5t11 81.5t53.5 64t89 26q89 0 136 -77q57 -94 14 -235q-53 -177 -247 -347zM162 725q0 68 49.5 117t118.5 49t117.5 -49t48.5 -117q0 -69 -48.5 -118.5t-117.5 -49.5t-118.5 49.5t-49.5 118.5z" />
<glyph unicode="&#x3c;" d="M129 616l651 603l172 -172l-485 -429l487 -428l-172 -178z" />
<glyph unicode="=" d="M109 307v211h909v-211h-909zM109 698v211h909v-211h-909z" />
<glyph unicode="&#x3e;" d="M172 1040l172 179l653 -605l-651 -602l-172 172l485 428z" />
<glyph unicode="?" horiz-adv-x="923" d="M137 1231l33 237q164 -4 292 -39.5t206.5 -94t118.5 -131t40 -154.5q0 -61 -17 -113.5t-44.5 -88.5t-61.5 -72t-67.5 -64t-62.5 -63t-47.5 -70t-21.5 -85t15 -108h-256q-27 85 -26 146t23.5 113t56.5 89t73 73.5t72.5 66.5t55.5 69t22 80q0 92 -107.5 147.5t-296.5 61.5z M236 133q0 65 46 110.5t113 45.5t113.5 -45.5t46.5 -110.5q0 -66 -46 -111t-114 -45q-67 0 -113 45t-46 111z" />
<glyph unicode="@" horiz-adv-x="1986" d="M164 573q0 200 71 374.5t192.5 297t288.5 192.5t355 70q143 0 263 -33.5t206 -94t146 -143.5t89 -181.5t29 -208.5q0 -277 -136.5 -428.5t-356.5 -151.5q-109 0 -163.5 55t-51.5 142h-6q-37 -76 -116.5 -136.5t-172.5 -60.5q-98 0 -152.5 74.5t-54.5 218.5 q0 116 29.5 214t86.5 173t150 117.5t213 42.5q145 0 250 -41l-72 -406q-18 -101 4 -144.5t86 -43.5q102 0 165 90.5t63 272.5q0 93 -28 173.5t-86.5 147t-160.5 105t-237 38.5q-136 0 -256.5 -51t-208.5 -141t-139.5 -221.5t-51.5 -284.5q0 -264 145.5 -408.5t436.5 -144.5 q181 0 358 59l39 -204q-99 -33 -215.5 -51.5t-214.5 -18.5q-378 0 -582 198.5t-204 542.5zM797 602q0 -133 65 -133q62 0 124 92t97 268l19 91q-40 12 -90 12q-67 0 -118 -55.5t-74 -129t-23 -145.5z" />
<glyph unicode="A" horiz-adv-x="1282" d="M2 0l477 1382h314l487 -1382h-295l-94 283h-524l-97 -283h-268zM430 494h393l-141 411q-35 103 -55 191h-2q-18 -68 -54 -191z" />
<glyph unicode="B" horiz-adv-x="1187" d="M143 0v1380q214 11 459 11q223 0 343 -88.5t120 -253.5q0 -104 -55 -187.5t-154 -122.5v-4q111 -23 179.5 -108.5t68.5 -200.5q0 -84 -31 -158t-94.5 -136.5t-174.5 -99t-257 -36.5q-36 0 -171.5 2t-232.5 2zM410 217q99 -6 147 -6q127 0 194.5 56.5t67.5 150.5 q0 96 -76.5 144t-216.5 48q-87 0 -116 -2v-391zM410 811q33 -2 108 -2q133 0 198.5 51t65.5 146q0 172 -223 172q-63 0 -149 -4v-363z" />
<glyph unicode="C" horiz-adv-x="1159" d="M78 647q0 166 43.5 302t128 236t217.5 155t303 55q158 0 295 -41l-37 -246q-125 49 -270 49q-189 0 -288 -127.5t-99 -337.5q0 -467 403 -467q63 0 135.5 16t126.5 42l41 -236q-165 -63 -360 -63q-141 0 -251.5 36.5t-182.5 97.5t-119 147.5t-66.5 180t-19.5 201.5z" />
<glyph unicode="D" horiz-adv-x="1366" d="M143 2v1378q300 11 447 11q700 0 700 -676q0 -174 -55.5 -312t-156.5 -227.5t-240.5 -136.5t-309.5 -47q-93 0 -385 10zM410 229q62 -10 145 -10q99 0 180 28.5t141.5 85.5t94 149t33.5 212q0 232 -102.5 352.5t-330.5 120.5q-97 0 -161 -6v-932z" />
<glyph unicode="E" horiz-adv-x="1009" d="M143 0v1382h752v-223h-485v-340h460v-217h-460v-373h485v-229h-752z" />
<glyph unicode="F" horiz-adv-x="952" d="M143 0v1382h740v-227h-473v-354h446v-219h-446v-582h-267z" />
<glyph unicode="G" horiz-adv-x="1382" d="M74 649q0 226 86.5 394.5t261.5 264t420 95.5q201 0 391 -60l-53 -243q-157 65 -355 65q-119 0 -210 -38t-145 -105t-81 -152t-27 -186q0 -222 113.5 -343.5t327.5 -121.5q93 0 176 25v481h266v-659q-214 -86 -473 -86q-337 0 -517.5 178t-180.5 491z" />
<glyph unicode="H" horiz-adv-x="1404" d="M143 0v1382h267v-553h585v553h269v-1382h-269v600h-585v-600h-267z" />
<glyph unicode="I" horiz-adv-x="552" d="M143 0v1382h267v-1382h-267z" />
<glyph unicode="J" horiz-adv-x="686" d="M0 -2v229q55 -20 127 -20q77 0 114.5 41.5t37.5 148.5v985h266v-995q0 -89 -19.5 -159.5t-61.5 -127.5t-116 -87.5t-176 -30.5q-78 0 -172 16z" />
<glyph unicode="K" horiz-adv-x="1222" d="M143 0v1382h267v-626l446 626h328l-508 -667l528 -715h-350l-444 664v-664h-267z" />
<glyph unicode="L" horiz-adv-x="878" d="M143 0v1382h267v-1149h448v-233h-715z" />
<glyph unicode="M" horiz-adv-x="1804" d="M66 0l210 1382h314l233 -714q47 -150 76 -291h4q48 200 76 287l235 718h312l215 -1382h-277l-100 668q-25 175 -43 346h-4q-39 -189 -78 -316l-223 -698h-258l-213 649q-59 190 -90 365h-4q-13 -166 -37 -369l-80 -645h-268z" />
<glyph unicode="N" horiz-adv-x="1431" d="M143 0v1382h353l417 -743q72 -127 134 -277q-15 261 -15 672v348h256v-1382h-352l-428 762q-88 172 -123 270q14 -212 14 -657v-375h-256z" />
<glyph unicode="O" horiz-adv-x="1439" d="M68 670q0 168 53.5 308t145 232.5t214.5 143.5t262 51q310 0 469.5 -183t159.5 -509q0 -168 -53.5 -308t-145.5 -233t-215 -144t-262 -51q-310 0 -469 183.5t-159 509.5zM352 702q0 -227 92.5 -355t274.5 -128q162 0 265 122.5t103 340.5q0 226 -92.5 354.5t-273.5 128.5 q-162 0 -265.5 -123t-103.5 -340z" />
<glyph unicode="P" horiz-adv-x="1101" d="M143 0v1382q190 9 387 9q253 0 389 -111t136 -315q0 -217 -145 -354.5t-404 -137.5l-96 4v-477h-267zM410 705q51 -11 112 -11q126 0 191 64t65 180q0 233 -266 233l-102 -2v-464z" />
<glyph unicode="Q" horiz-adv-x="1439" d="M68 670q0 168 53.5 308t145 232.5t214.5 143.5t262 51q310 0 469.5 -183t159.5 -509q0 -206 -76 -359t-209 -221q44 0 99.5 -15.5t117.5 -25.5q30 -5 64 -5t70 5v-227q-79 -10 -136 -10q-25 0 -46 2q-68 6 -133 25.5t-111 40.5t-114 37.5t-142 16.5h-60 q-310 0 -469 183.5t-159 509.5zM352 702q0 -227 92.5 -355t274.5 -128q161 0 264.5 123.5t103.5 339.5q0 226 -92.5 354.5t-273.5 128.5q-162 0 -265.5 -123t-103.5 -340z" />
<glyph unicode="R" horiz-adv-x="1161" d="M143 0v1382q164 9 398 9q501 0 501 -390q0 -150 -96 -255t-244 -130q78 -102 111 -151l322 -465h-330l-373 571h-22v-571h-267zM410 768q36 -4 96 -4q120 0 189 57t69 154q0 199 -250 199q-57 0 -104 -7v-399z" />
<glyph unicode="S" horiz-adv-x="1030" d="M82 989q0 188 138 302t384 114q118 0 250 -27l-25 -233q-119 39 -237 39q-113 0 -170 -44.5t-57 -121.5q0 -39 20 -70.5t54.5 -53.5t79 -41.5t93 -39.5t97.5 -42t93.5 -53.5t79 -70t54.5 -96t20 -127.5q0 -194 -148.5 -320.5t-385.5 -126.5q-184 0 -320 37l29 256 q140 -59 301 -59q102 0 167 44.5t65 135.5q0 53 -32 91.5t-83.5 63.5t-113.5 47.5t-124 53t-113.5 71t-83.5 110t-32 161.5z" />
<glyph unicode="T" horiz-adv-x="1044" d="M31 1155v227h983v-227h-359v-1155h-266v1155h-358z" />
<glyph unicode="U" horiz-adv-x="1394" d="M143 479v903h267v-886q0 -69 13 -120.5t44 -93t88.5 -62.5t140.5 -21q156 0 223.5 73t67.5 248v862h264v-845q0 -280 -147.5 -420t-425.5 -140q-91 0 -166.5 14t-130.5 39t-96.5 61.5t-68 78.5t-43.5 94t-23.5 103.5t-6.5 111.5z" />
<glyph unicode="V" horiz-adv-x="1286" d="M6 1382h291l268 -809q55 -160 80 -266h4q36 140 84 283l273 792h274l-485 -1382h-308z" />
<glyph unicode="W" horiz-adv-x="1947" d="M49 1382h285l188 -764q31 -123 51 -280h2q24 157 54 272l211 772h282l213 -768q43 -163 56 -268h2q20 137 51 264l188 772h266l-352 -1382h-327l-201 762q-27 104 -53 285h-2q-15 -142 -52 -279l-200 -768h-310z" />
<glyph unicode="X" horiz-adv-x="1286" d="M20 0l441 707l-414 675h309l281 -479l278 479h304l-408 -673l455 -709h-336l-297 508l-297 -508h-316z" />
<glyph unicode="Y" horiz-adv-x="1148" d="M6 1382h291l182 -397q48 -107 94 -229h5q33 90 110 256l174 370h283l-440 -893v-489h-267v487z" />
<glyph unicode="Z" horiz-adv-x="1099" d="M92 0v205l498 811q64 98 90 131q-98 -4 -252 -4h-319v239h892v-215l-526 -829q-39 -64 -63 -96q35 4 299 4h299v-246h-918z" />
<glyph unicode="[" horiz-adv-x="671" d="M145 -420v2011h453v-207h-207v-1593h207v-211h-453z" />
<glyph unicode="\" horiz-adv-x="980" d="M14 1550h258l717 -1880h-258z" />
<glyph unicode="]" horiz-adv-x="671" d="M74 -209h205v1593h-205v207h450v-2011h-450v211z" />
<glyph unicode="^" d="M113 782l336 600h200l350 -598l-188 -94l-268 506l-256 -506z" />
<glyph unicode="_" d="M0 -293h1126v-211h-1126v211z" />
<glyph unicode="`" horiz-adv-x="765" d="M137 1368l121 176l348 -256l-98 -141z" />
<glyph unicode="a" horiz-adv-x="1073" d="M78 270q0 118 73.5 199t203.5 118.5t311 37.5v37q0 94 -41.5 136t-141.5 42q-67 0 -152 -20t-155 -50l-43 201q172 69 385 69q116 0 196.5 -23.5t127 -71t66.5 -111t20 -152.5v-420q0 -150 8 -262h-250q0 106 10 172l-2 2q-37 -87 -124.5 -140.5t-200.5 -53.5 q-135 0 -213 81t-78 209zM330 299q0 -51 33.5 -85t89.5 -34q92 0 152.5 75t60.5 171v27q-96 0 -163.5 -11.5t-104 -33t-52.5 -48t-16 -61.5z" />
<glyph unicode="b" horiz-adv-x="1144" d="M141 29v1466h262v-438q0 -114 -16 -199h2q38 84 120 132t187 48q182 0 278.5 -125t96.5 -352q0 -263 -146.5 -422t-404.5 -159q-205 0 -379 49zM403 207q59 -19 138 -19q118 0 187 83.5t69 263.5q0 286 -174 286q-99 0 -159.5 -96.5t-60.5 -230.5v-287z" />
<glyph unicode="c" horiz-adv-x="870" d="M70 475q0 162 55 286.5t173.5 199.5t289.5 75q123 0 223 -35l-41 -225q-93 39 -190 39q-114 0 -175 -84t-61 -229q0 -295 238 -295q108 0 198 41l35 -219q-121 -47 -287 -47q-220 0 -339 120.5t-119 372.5z" />
<glyph unicode="d" horiz-adv-x="1142" d="M72 455q0 262 144 421.5t394 159.5q69 0 129 -8v467h260v-1495h-243q0 88 12 170h-4q-41 -88 -125 -140.5t-197 -52.5q-182 0 -276 127t-94 351zM346 483q0 -288 174 -288q99 0 159 98t60 235v285q-75 16 -137 16q-120 0 -188 -83t-68 -263z" />
<glyph unicode="e" horiz-adv-x="1052" d="M70 500q0 153 56.5 274.5t167.5 192.5t259 71q212 0 317 -119.5t105 -312.5q0 -91 -10 -147h-629q0 -138 67.5 -206.5t212.5 -68.5q147 0 295 60l29 -199q-176 -65 -369 -65q-501 0 -501 520zM338 633h377v12q0 94 -44 146q-47 55 -132 55q-82 0 -136.5 -57t-64.5 -156z " />
<glyph unicode="f" horiz-adv-x="724" d="M16 815v203h179v84q0 207 98.5 308t306.5 101q95 0 166 -16l-18 -215q-53 18 -127 18q-86 0 -126 -46.5t-40 -147.5v-86h237v-203h-237v-815h-260v815h-179z" />
<glyph unicode="g" horiz-adv-x="1116" d="M70 -211q0 77 45.5 146t111.5 104q-46 22 -73 63t-27 93q0 59 34 108.5t87 73.5q-72 39 -112 109.5t-40 168.5q0 78 29 147t83.5 122.5t141.5 84.5t195 31q80 0 166 -22h346v-205h-139q51 -48 51 -129q0 -168 -112.5 -267.5t-324.5 -99.5q-36 0 -79 9q-24 -10 -37 -28 t-13 -38q0 -35 33.5 -47.5t124.5 -15.5l158 -7q346 -13 346 -299q0 -169 -156 -287t-403 -118q-206 0 -321 78t-115 225zM328 -162q0 -70 59 -110.5t158 -40.5q123 0 191.5 47.5t68.5 122.5q0 58 -39.5 93t-120.5 38l-176 6h-47q-94 -69 -94 -156zM346 672q0 -83 49 -129.5 t140 -46.5q86 0 135 46t49 128q0 83 -47.5 131.5t-136.5 48.5q-87 0 -138 -50t-51 -128z" />
<glyph unicode="h" horiz-adv-x="1169" d="M141 0v1495h262v-438q0 -129 -18 -207h4q46 87 132 137.5t202 50.5q83 0 143.5 -25t94.5 -70.5t49.5 -101.5t15.5 -126v-715h-260v651q0 83 -28.5 125.5t-98.5 42.5q-98 0 -167 -97t-69 -233v-489h-262z" />
<glyph unicode="i" horiz-adv-x="544" d="M111 1327q0 66 47 113t114 47q68 0 116 -46.5t48 -113.5q0 -65 -48.5 -111.5t-115.5 -46.5t-114 46t-47 112zM141 0v1018h262v-1018h-262z" />
<glyph unicode="j" horiz-adv-x="555" d="M-129 -487l18 223q66 -25 121 -25q81 0 111.5 41.5t30.5 145.5v1120h260v-1094q0 -216 -91 -324t-305 -108q-70 0 -145 21zM117 1327q0 66 48 113t116 47t115.5 -46.5t47.5 -113.5q0 -65 -48 -111.5t-115 -46.5q-68 0 -116 46t-48 112z" />
<glyph unicode="k" horiz-adv-x="1071" d="M141 0v1495h262v-901l297 424h320l-356 -465l383 -553h-328l-316 504v-504h-262z" />
<glyph unicode="l" horiz-adv-x="544" d="M141 0v1495h262v-1495h-262z" />
<glyph unicode="m" horiz-adv-x="1773" d="M141 0v1018h248q0 -97 -12 -182l2 -2q46 95 134.5 149.5t201.5 54.5q65 0 116 -17.5t83 -47.5t51.5 -63.5t29.5 -73.5q40 83 126.5 142.5t205.5 59.5q305 0 305 -338v-700h-262v643q0 88 -26.5 132t-94.5 44q-91 0 -162 -94.5t-71 -237.5v-487h-258v645q0 84 -25.5 129 t-95.5 45q-93 0 -163.5 -96.5t-70.5 -235.5v-487h-262z" />
<glyph unicode="n" horiz-adv-x="1169" d="M141 0v1018h248q0 -108 -14 -182h2q48 93 137 147.5t209 54.5q83 0 143.5 -25t94.5 -70.5t49.5 -101.5t15.5 -126v-715h-260v651q0 83 -28.5 125.5t-98.5 42.5q-98 0 -167 -96.5t-69 -230.5v-492h-262z" />
<glyph unicode="o" horiz-adv-x="1132" d="M68 492q0 239 144.5 392.5t375.5 153.5q225 0 351 -127t126 -383q0 -239 -146.5 -393.5t-373.5 -154.5q-226 0 -351.5 125t-125.5 387zM338 518q0 -315 227 -315q101 0 165.5 80.5t64.5 230.5q0 303 -226 303q-96 0 -163.5 -76t-67.5 -223z" />
<glyph unicode="p" horiz-adv-x="1144" d="M141 -494v1512h244q0 -104 -10 -170h4q44 91 125 140.5t194 49.5q180 0 276.5 -124t96.5 -351q0 -270 -138 -423.5t-398 -153.5q-75 0 -132 8v-488h-262zM403 207q65 -19 138 -19q118 0 187 83.5t69 263.5q0 288 -174 288q-99 0 -159.5 -98.5t-60.5 -235.5v-282z" />
<glyph unicode="q" horiz-adv-x="1144" d="M74 455q0 264 146 422.5t409 158.5q187 0 372 -30v-1500h-260v461q0 115 15 197l-4 2q-40 -88 -120 -138.5t-181 -50.5q-184 0 -280.5 122t-96.5 356zM348 483q0 -288 172 -288q99 0 160 99t61 238v283q-75 14 -137 14q-120 0 -188 -83t-68 -263z" />
<glyph unicode="r" horiz-adv-x="727" d="M141 0v1018h248q0 -97 -18 -205h4q41 109 121 173q68 54 167 54q17 0 35 -2l-12 -256q-33 7 -62 7q-95 0 -150 -70q-71 -91 -71 -303v-416h-262z" />
<glyph unicode="s" horiz-adv-x="854" d="M84 715q0 143 110 234t322 91q89 0 184 -20l-12 -205q-93 27 -184 27q-74 0 -112 -28t-38 -77q0 -35 23 -59.5t60 -41t82 -31.5t90 -37t82 -51.5t60 -80.5t23 -119q0 -152 -123 -244.5t-325 -92.5q-133 0 -228 26l19 219q93 -41 217 -41q74 0 119 30t45 81q0 36 -23 61.5 t-59.5 40.5t-80.5 29.5t-88 35t-80.5 50t-59.5 81.5t-23 122z" />
<glyph unicode="t" horiz-adv-x="768" d="M12 815v203h176v313l261 70v-383h247v-203h-247v-446q0 -97 26 -132.5t94 -35.5t117 14l19 -207q-115 -28 -222 -28q-168 0 -231.5 69.5t-63.5 249.5v516h-176z" />
<glyph unicode="u" horiz-adv-x="1167" d="M141 303v715h260v-651q0 -83 28.5 -125.5t98.5 -42.5q99 0 167.5 96t68.5 231v492h262v-1018h-246q0 113 13 182h-2q-48 -93 -136.5 -147.5t-210.5 -54.5q-83 0 -143.5 25t-94.5 70.5t-49.5 101.5t-15.5 126z" />
<glyph unicode="v" horiz-adv-x="1036" d="M10 1018h283l164 -492q44 -144 65 -254h4q24 119 62 252l160 494h276l-352 -1018h-312z" />
<glyph unicode="w" horiz-adv-x="1630" d="M18 1018h287l109 -385q57 -209 80 -307h2q22 126 73 295l123 397h252l125 -385q62 -208 82 -307h4q24 124 70 295l116 397h269l-320 -1018h-284l-148 451q-37 132 -57 229h-2q-24 -113 -70 -256l-129 -424h-270z" />
<glyph unicode="x" horiz-adv-x="1081" d="M23 0l350 514l-330 504h313l197 -336l199 336h290l-319 -502l336 -516h-330l-197 342l-196 -342h-313z" />
<glyph unicode="y" horiz-adv-x="1028" d="M-37 -496l31 226q68 -21 129 -21q162 0 231 201l33 90l-377 1018h293l137 -389q40 -123 80 -281h2q36 146 99 324l120 346h281l-404 -1075q-50 -132 -102.5 -219.5t-115.5 -139t-132.5 -73t-161.5 -21.5q-75 0 -143 14z" />
<glyph unicode="z" horiz-adv-x="921" d="M92 0v186l410 600q-78 -4 -217 -4h-181v236h713v-187l-401 -593q43 2 231 2h178v-240h-733z" />
<glyph unicode="{" horiz-adv-x="741" d="M55 543v196q110 6 157.5 52.5t47.5 169.5v178q0 230 87.5 341t285.5 111h43v-207q-101 0 -136.5 -47.5t-35.5 -193.5v-176q0 -156 -49 -232t-140 -92v-4q189 -27 189 -330v-274q0 -101 16 -152.5t51.5 -71.5t104.5 -20v-211h-43q-198 0 -285.5 109t-87.5 348v276 q0 123 -49 173.5t-156 56.5z" />
<glyph unicode="|" horiz-adv-x="589" d="M186 -494v2048h209v-2048h-209z" />
<glyph unicode="}" horiz-adv-x="737" d="M72 -209q102 0 138 48.5t36 195.5v274q0 304 188 330v4q-188 26 -188 318v182q0 145 -36 193t-138 48v207h45q198 0 284 -111t86 -341v-172q0 -128 47 -175t158 -53v-196q-106 -6 -155.5 -56.5t-49.5 -173.5v-276q0 -240 -86.5 -348.5t-283.5 -108.5h-45v211z" />
<glyph unicode="~" d="M86 881v37q0 148 83.5 237.5t225.5 89.5q55 0 99 -16t71 -40t52 -51.5t42.5 -51.5t41.5 -40t51 -16q93 0 96 166h194v-37q0 -149 -83.5 -238.5t-225.5 -89.5q-65 0 -114.5 22t-78.5 53.5t-53 62.5t-51 53t-59 22q-93 0 -96 -163h-195z" />
<glyph unicode="&#xa1;" horiz-adv-x="657" d="M154 885q0 66 45.5 110.5t113.5 44.5t114 -44.5t46 -110.5q0 -65 -46.5 -110.5t-113.5 -45.5t-113 45.5t-46 110.5zM158 -432l39 1065h225l43 -1065h-307z" />
<glyph unicode="&#xa2;" horiz-adv-x="929" d="M82 551q0 196 100 332.5t275 169.5v190h196v-176q97 -7 183 -35l-25 -221q-85 43 -197 43q-120 0 -191 -76.5t-71 -212.5q0 -127 63 -201.5t195 -74.5q109 0 209 51l19 -227q-92 -35 -185 -43v-209h-196v209q-183 23 -279 150.5t-96 330.5z" />
<glyph unicode="&#xa3;" horiz-adv-x="974" d="M59 616v201h177q-23 145 -23 207q0 187 109 285t309 98q129 0 227 -31l-45 -215q-84 31 -168 31q-79 0 -123.5 -42t-44.5 -126q0 -35 21 -207h276v-201h-252q4 -41 4 -100q0 -94 -32.5 -166t-104.5 -135q73 12 219 12h316v-227h-838v182q96 68 138 139.5t42 170.5 q0 63 -8 124h-199z" />
<glyph unicode="&#xa4;" d="M88 242l139 174q-69 98 -69 252q0 148 80 252l-148 188l199 141l145 -198q65 26 148 26q75 0 131 -22l143 196l199 -145l-146 -182q60 -89 60 -236q0 -137 -76 -244l162 -202l-201 -146l-158 211q-74 -33 -151 -33q-61 0 -113 19l-141 -195zM387 678q0 -97 43.5 -155 t132.5 -58q74 0 125 56t51 163q0 203 -178 203q-73 0 -123.5 -55.5t-50.5 -153.5z" />
<glyph unicode="&#xa5;" horiz-adv-x="1230" d="M45 1382h291l182 -376q54 -110 96 -232h4q43 124 113 258l178 350h281l-381 -749h254v-166h-318v-119h318v-170h-318v-178h-264v178h-317v170h317v119h-317v166h256z" />
<glyph unicode="&#xa6;" horiz-adv-x="589" d="M186 281h209v-775h-209v775zM186 801v753h209v-753h-209z" />
<glyph unicode="&#xa7;" horiz-adv-x="1085" d="M123 666q0 182 156 297q-76 95 -76 213q0 147 106 241t324 94q100 0 168 -16l-15 -217q-70 20 -145 20q-158 0 -158 -114q0 -36 25 -74t65 -75t88.5 -78t97.5 -89t89 -100t65 -120t25 -142q0 -87 -42.5 -164t-115.5 -133q76 -93 76 -213q0 -52 -15.5 -100t-51 -91.5 t-87.5 -76t-131 -51.5t-176 -19q-94 0 -170 20l17 220q86 -25 157 -25q87 0 131.5 34.5t44.5 90.5q0 37 -25 75.5t-65 74.5t-88 75t-96 85t-88 97t-65 118.5t-25 142.5zM360 700q0 -35 13.5 -70t30.5 -61.5t60.5 -69.5t73.5 -70t99 -87q63 48 63 129q0 32 -11 63.5t-27 56.5 t-45.5 57.5t-54 55t-67 61.5t-69.5 66q-66 -51 -66 -131z" />
<glyph unicode="&#xa8;" horiz-adv-x="1118" d="M193 1327q0 60 41 100.5t100 40.5t100 -40.5t41 -100.5q0 -59 -41.5 -100t-99.5 -41t-99.5 41t-41.5 100zM606 1327q0 60 41.5 100.5t100.5 40.5t100 -40.5t41 -100.5q0 -59 -41.5 -100t-99.5 -41q-59 0 -100.5 41.5t-41.5 99.5z" />
<glyph unicode="&#xa9;" horiz-adv-x="1560" d="M78 682q0 143 55.5 272.5t149 223t223 149t272.5 55.5q190 0 351.5 -93t255.5 -254t94 -351t-94 -351.5t-255.5 -255t-351.5 -93.5q-145 0 -275 55t-223 148.5t-147.5 222.5t-54.5 272zM274 684q0 -137 67.5 -253.5t183.5 -184.5t253 -68q209 0 355.5 147.5t146.5 356.5 q0 136 -66.5 252.5t-182.5 185t-253 68.5q-209 0 -356.5 -147.5t-147.5 -356.5zM444 676q0 77 21.5 143t64 118t113.5 82t162 30t168 -31l-29 -174q-54 35 -129 35q-153 0 -153 -199q0 -178 143 -178q83 0 143 28l35 -168q-84 -40 -209 -40q-155 0 -242.5 95.5t-87.5 258.5z " />
<glyph unicode="&#xaa;" horiz-adv-x="825" d="M82 846q0 131 112.5 198.5t294.5 65.5v31q0 42 -24 69t-94 27q-113 0 -226 -55l-18 176q123 45 276 45q82 0 141 -19.5t91 -54t46.5 -75t14.5 -89.5v-325q0 -125 2 -174h-198q0 56 8 100l-2 2q-24 -52 -82 -86.5t-125 -34.5q-109 0 -163 54t-54 145zM102 360v203h637 v-203h-637zM279 874q0 -28 20.5 -46.5t54.5 -18.5q61 0 98 49t37 98v21q-108 0 -159 -24.5t-51 -78.5z" />
<glyph unicode="&#xab;" horiz-adv-x="1093" d="M86 598l225 403l201 -92l-174 -309l178 -305l-211 -94zM530 598l246 393l197 -94l-189 -297l193 -293l-205 -96z" />
<glyph unicode="&#xac;" d="M80 500v219h921v-524h-231v305h-690z" />
<glyph unicode="&#xad;" horiz-adv-x="684" d="M90 463v211h504v-211h-504z" />
<glyph unicode="&#xae;" horiz-adv-x="1155" d="M98 1085q0 197 140.5 335.5t339.5 138.5q200 0 339.5 -137t139.5 -337q0 -96 -38.5 -183.5t-102.5 -150.5t-152.5 -100t-185.5 -37q-201 0 -340.5 136.5t-139.5 334.5zM256 1087q0 -132 94.5 -227.5t227.5 -95.5q132 0 225.5 94t93.5 227q0 132 -93.5 228t-225.5 96 q-134 0 -228 -94.5t-94 -227.5zM410 860v457h190q82 0 122 -34t40 -93q0 -103 -92 -129q20 -24 35 -55l67 -146h-147l-78 174h-15v-174h-122zM532 1118h23q35 0 53.5 15.5t18.5 40.5q0 49 -62 49h-33v-105z" />
<glyph unicode="&#xaf;" horiz-adv-x="808" d="M129 1229v188h551v-188h-551z" />
<glyph unicode="&#xb0;" horiz-adv-x="794" d="M86 1231q0 87 46 154.5t115.5 101t147.5 33.5q151 0 226 -80t75 -203q0 -134 -93.5 -212.5t-221.5 -78.5q-137 0 -216 76.5t-79 208.5zM281 1233q0 -56 30 -88.5t80 -32.5t80.5 35t30.5 90q0 47 -28 83t-81 36q-50 0 -81 -34t-31 -89z" />
<glyph unicode="&#xb1;" d="M80 709v217h358v372h250v-372h359v-217h-359v-375h-250v375h-358zM88 0v219h950v-219h-950z" />
<glyph unicode="&#xb2;" horiz-adv-x="761" d="M72 733v176l147 150q46 47 71.5 75t55.5 66t43.5 70t13.5 61q0 51 -30 80t-90 29q-88 0 -172 -41l-31 182q51 22 125.5 35.5t140.5 13.5q149 0 233.5 -63t84.5 -187q0 -100 -40.5 -175.5t-129.5 -172.5l-103 -104q80 4 299 4v-199h-618z" />
<glyph unicode="&#xb3;" horiz-adv-x="745" d="M57 739l27 164q61 -20 164 -20q77 0 121.5 30t44.5 82q0 63 -76.5 93t-218.5 12v155q272 0 272 125q0 43 -32 65.5t-91 22.5q-104 0 -176 -34l-22 157q109 39 256 39q149 0 228 -55.5t79 -163.5q0 -142 -127 -199q79 -22 117.5 -76t38.5 -126q0 -134 -107.5 -213.5 t-290.5 -79.5q-102 0 -207 22z" />
<glyph unicode="&#xb4;" horiz-adv-x="804" d="M215 1288l346 256l121 -176l-371 -221z" />
<glyph unicode="&#xb6;" horiz-adv-x="1218" d="M111 930q0 204 135.5 328t353.5 124v-909q-99 -1 -181 23t-138.5 65.5t-95 100t-56.5 125.5t-18 143zM614 12h144v1370h356v-208h-133v-1371h-367v209z" />
<glyph unicode="&#xb7;" horiz-adv-x="550" d="M106 610q0 69 50 119.5t120 50.5q69 0 119.5 -50.5t50.5 -119.5q0 -70 -50.5 -120t-119.5 -50q-70 0 -120 50t-50 120z" />
<glyph unicode="&#xb8;" horiz-adv-x="819" d="M287 -479q51 62 71 111.5t8.5 103t-59.5 114.5l217 68q148 -202 -41 -397h-196z" />
<glyph unicode="&#xb9;" horiz-adv-x="606" d="M23 1528l243 86h215v-881h-252v664l-168 -62z" />
<glyph unicode="&#xba;" horiz-adv-x="872" d="M78 1022q0 173 105 278t263 105q157 0 249.5 -88.5t92.5 -280.5q0 -175 -105 -281t-269 -106q-152 0 -244 90t-92 283zM109 360v203h651v-203h-651zM291 1028q0 -86 32.5 -141.5t104.5 -55.5q65 0 106 48.5t41 152.5q0 189 -141 189q-60 0 -101.5 -47.5t-41.5 -145.5z " />
<glyph unicode="&#xbb;" horiz-adv-x="1093" d="M117 895l205 96l241 -387l-248 -393l-196 94l190 297zM578 907l210 94l220 -397l-226 -403l-202 92l176 309z" />
<glyph unicode="&#xbc;" horiz-adv-x="1740" d="M23 1528l243 86h215v-881h-252v664l-168 -62zM59 -197l1336 1854l159 -113l-1333 -1851zM909 117l301 534h338v-512h129v-184h-129v-184h-221v184h-401zM1120 135q55 2 205 2v371z" />
<glyph unicode="&#xbd;" horiz-adv-x="1757" d="M23 1528l243 86h215v-881h-252v664l-168 -62zM59 -197l1336 1854l159 -113l-1333 -1851zM1055 -53l147 149q91 93 136.5 155t45.5 118q0 108 -118 108q-88 0 -172 -41l-33 182q53 22 127.5 36t140.5 14q147 0 231.5 -63t84.5 -187q0 -100 -40 -176t-128 -172l-103 -105 q80 4 297 4v-198h-616v176z" />
<glyph unicode="&#xbe;" horiz-adv-x="1777" d="M57 739l27 164q61 -20 164 -20q77 0 121.5 30t44.5 82q0 63 -76.5 93t-218.5 12v155q272 0 272 125q0 43 -32 65.5t-91 22.5q-104 0 -176 -34l-22 157q109 39 256 39q149 0 228 -55.5t79 -163.5q0 -142 -127 -199q79 -22 117.5 -76t38.5 -126q0 -134 -107.5 -213.5 t-290.5 -79.5q-102 0 -207 22zM98 -197l1334 1854l161 -113l-1335 -1851zM948 117l301 534h338v-512h127v-184h-127v-184h-221v184h-403zM1159 135q53 2 203 2v371z" />
<glyph unicode="&#xbf;" horiz-adv-x="923" d="M96 -31q0 61 17 113.5t44.5 88.5t61.5 72t67.5 64t62.5 63t47.5 70t21.5 85t-15 108h256q27 -85 26 -146t-23.5 -113t-56 -89t-72.5 -73.5t-72.5 -66.5t-55.5 -69t-22 -80q0 -92 107 -147.5t296 -61.5l-32 -238q-164 4 -292.5 39.5t-206.5 94.5t-118.5 131.5t-40.5 154.5 zM369 885q0 66 45.5 110.5t113.5 44.5t114 -44.5t46 -110.5q0 -65 -46.5 -110.5t-113.5 -45.5t-113 45.5t-46 110.5z" />
<glyph unicode="&#xc6;" horiz-adv-x="1607" d="M-78 0l684 1382h873v-223h-478v-340h461v-217h-461v-373h492v-229h-748v305h-403l-147 -305h-273zM432 514h313v645h-4q-52 -131 -127 -289z" />
<glyph unicode="&#xd0;" horiz-adv-x="1384" d="M8 606v203h154v571q300 11 448 11q699 0 699 -676q0 -343 -204.5 -533t-557.5 -190q-93 0 -385 10v604h-154zM426 229q62 -10 145 -10q206 0 328.5 119t122.5 356q0 232 -102 352.5t-332 120.5q-98 0 -162 -6v-352h250v-203h-250v-377z" />
<glyph unicode="&#xd7;" d="M96 285l316 315l-316 315l160 160l315 -315l316 315l143 -143l-315 -316l315 -315l-160 -160l-315 316l-315 -316z" />
<glyph unicode="&#xde;" horiz-adv-x="1114" d="M143 0v1382h267v-192q90 4 149 4q247 0 384.5 -113.5t137.5 -332.5q0 -217 -155.5 -355.5t-413.5 -138.5q-69 0 -102 4v-258h-267zM410 479q47 -8 118 -8q127 0 203 67t76 193q0 113 -70 179.5t-217 66.5q-32 0 -110 -8v-490z" />
<glyph unicode="&#xdf;" horiz-adv-x="1243" d="M141 0v1012q0 131 38.5 229.5t107.5 155.5t155.5 84.5t190.5 27.5q190 0 303 -81.5t113 -223.5q0 -73 -24.5 -126.5t-59.5 -85t-70 -57.5t-59.5 -60.5t-24.5 -77.5q0 -35 20.5 -64.5t53 -52t71.5 -45t78.5 -51t72 -62.5t53 -85.5t20.5 -114.5q0 -155 -117.5 -250 t-306.5 -95q-135 0 -217 29l14 215q90 -41 186 -41q86 0 128 33t42 82q0 36 -20 65t-52 51t-71 44t-78 49t-71 60.5t-52 85.5t-20 116q0 66 24 118t57.5 85t67.5 63t58 69t24 87q0 58 -40.5 88.5t-112.5 30.5q-106 0 -163 -70t-57 -213v-1024h-262z" />
<glyph unicode="&#xe6;" horiz-adv-x="1638" d="M78 270q0 177 156.5 267t431.5 90v51q0 82 -46 122t-153 40q-67 0 -145.5 -20t-141.5 -52l-47 207q170 65 379 65q226 0 319 -127h3q47 57 126 92t173 35q108 0 191.5 -35t134.5 -98t76.5 -144.5t25.5 -178.5q0 -50 -9 -121h-630q-3 -279 280 -279q152 0 295 64l29 -201 q-165 -67 -369 -67q-159 0 -263.5 55t-145.5 151h-3q-50 -93 -145.5 -149.5t-228.5 -56.5q-136 0 -214.5 81t-78.5 209zM328 299q0 -51 33 -85t88 -34q93 0 155 75t62 171v31q-97 0 -164.5 -12t-104.5 -34.5t-53 -49.5t-16 -62zM926 639h374q3 98 -44.5 153.5t-131.5 55.5 q-81 0 -134 -56.5t-64 -152.5z" />
<glyph unicode="&#xf0;" horiz-adv-x="1136" d="M68 492q0 242 138.5 392t354.5 150q116 0 162 -63q-8 15 -17.5 31t-19.5 31.5t-14 21.5q-39 68 -109 141l-188 -84l-107 123l172 76q-55 47 -155 116l256 109q73 -56 141 -123l182 80l105 -123l-176 -76q268 -329 268 -725q0 -146 -39.5 -260t-109.5 -185t-161 -107.5 t-198 -36.5q-223 0 -354 129t-131 383zM340 512q0 -149 61 -229t170 -80q100 0 158.5 82t58.5 247q0 134 -56 209.5t-167 75.5q-96 0 -160.5 -77.5t-64.5 -227.5z" />
<glyph unicode="&#xf7;" d="M80 500v219h967v-219h-967zM401 199q0 66 47 112.5t113 46.5t113 -46.5t47 -112.5t-47 -113t-113 -47t-113 47t-47 113zM401 1020q0 66 47 113t113 47t113 -47t47 -113t-47 -113t-113 -47t-113 47t-47 113z" />
<glyph unicode="&#xfb;" horiz-adv-x="6113" d="M0 117q0 129 221 139v2q0 42 -16 58t-55 16q-29 0 -107 -19l-23 82q108 23 156 23q31 0 54.5 -5t47 -19t36 -44.5t12.5 -75.5v-274h-82l-4 18q-42 -26 -107 -26q-61 0 -97 34.5t-36 90.5zM8 864l27 84h41q-17 27 -17 60q0 64 64.5 96.5t161.5 15.5l-25 -90q-44 6 -66 -7 t-22 -34q0 -19 15.5 -30t43.5 -11h66l-25 -84h-264zM98 121q0 -28 16 -43t44 -15q38 0 63 25v96q-60 -2 -91.5 -15t-31.5 -48zM369 1008v428h114v-424q0 -64 49 -64h35q51 0 51 64v71q3 168 170 168q105 0 191 -24v-189q0 -45 21 -67.5t57 -22.5q61 0 61 64v215h115v-219 q0 -87 -38 -115.5t-118 -28.5h-45q-49 0 -94 31q-37 -37 -104 -37q-69 0 -119 60q-29 -54 -109 -54h-112q-24 0 -42.5 4.5t-39 18t-32 44.5t-11.5 77zM416 133v449h104v-443q0 -59 45 -59h29l2 -80h-66q-58 0 -86 31t-28 102zM662 516q0 24 16.5 40.5t40.5 16.5t40.5 -16.5 t16.5 -40.5t-16.5 -40.5t-40.5 -16.5t-40.5 16.5t-16.5 40.5zM666 0v403h104v-403h-104zM731 1022q15 -31 43 -55.5t49 -24.5q43 0 43 64v137q-28 4 -59 4q-47 0 -61.5 -28t-14.5 -89v-8zM874 0v393q94 25 193 25q174 0 174 -174v-244h-104v205q0 60 -16.5 88.5t-65.5 28.5 q-20 0 -76 -9v-313h-105zM1114 1374q0 26 18 44t44 18t43.5 -18t17.5 -44t-17.5 -43.5t-43.5 -17.5t-44 17.5t-18 43.5zM1300 864l25 84h45v488h84v-488h66q49 0 49 64v424h112v-428q0 -47 -11 -77.5t-31 -44t-38 -18t-42 -4.5h-259zM1339 0v393q94 25 189 25q75 0 114 -31 q67 31 144 31q172 0 172 -174v-244h-105v205q0 61 -15 89t-64 28q-39 0 -80 -23q6 -21 6 -55v-244h-105v205q0 61 -15 89t-64 28q-20 0 -72 -9v-313h-105zM1362 733l8 27h12q-4 8 -4 16q0 19 19.5 30t48.5 5l-6 -27q-27 3 -27 -12q0 -12 19 -12h18l-6 -27h-82zM1796 864v572 h115v-572h-115zM2028 117q0 129 221 139v2q0 42 -16.5 58t-55.5 16q-28 0 -106 -19l-23 82q108 23 156 23q31 0 54.5 -5t46.5 -19t35.5 -44.5t12.5 -75.5v-274h-82l-4 18q-42 -26 -106 -26q-61 0 -97 34.5t-36 90.5zM2126 121q0 -28 15.5 -43t43.5 -15q39 0 64 25v96 q-60 -2 -91.5 -15t-31.5 -48zM2175 997v113l115 35v-133q0 -30 18 -47t49 -17h166q-51 67 -51 135q0 80 42 124t128 44q102 0 192 -24v-219q0 -74 -47 -109t-127 -35h-348q-57 0 -97 38t-40 95zM2587 1069q0 -39 27.5 -80t47.5 -41q58 0 58 64v131q-28 4 -58 4 q-75 0 -75 -78zM2611 1374q0 26 18 44t44 18t43.5 -18t17.5 -44t-17.5 -43.5t-43.5 -17.5t-44 17.5t-18 43.5zM2662 14v568h105v-170q30 6 65 6q94 0 143.5 -46.5t49.5 -168.5q0 -99 -57.5 -155t-147.5 -56q-81 0 -158 22zM2767 82q36 -4 55 -4q40 0 68 33.5t28 91.5 q0 43 -7.5 70t-23 38t-28 14t-33.5 3q-19 0 -59 -9v-237zM2828 791q50 0 94 35t44 110v291h114v-279h133v215l115 35v-51q174 51 279 51q108 0 160 -64t65 -186h69q52 0 52 64v71q0 168 170 168q104 0 190 -24v-205q0 -164 -145 -164q-69 0 -119 60q-29 -54 -109 -54h-870 q-14 -55 -49.5 -92t-77.5 -52t-90 -15zM3088 117q0 129 222 139v2q0 42 -16.5 58t-55.5 16q-29 0 -107 -19l-22 82q108 23 156 23q31 0 54.5 -5t46.5 -19t35.5 -44.5t12.5 -75.5v-274h-82l-4 18q-42 -26 -106 -26q-61 0 -97.5 34.5t-36.5 90.5zM3187 121q0 -28 15.5 -43 t43.5 -15q39 0 64 25v96q-60 -2 -91.5 -15t-31.5 -48zM3328 948h387q-20 146 -127 146q-87 0 -260 -47v-99zM3512 0v393q94 25 195 25q172 0 172 -174v-244h-105v205q0 60 -16 88.5t-65 28.5q-20 0 -76 -9v-313h-105zM3977 0v580h105v-353l149 176h115l-146 -165l150 -238 h-123l-113 186h-32v-186h-105zM4065 1022q15 -31 43 -55.5t49 -24.5q43 0 43 64v137q-28 4 -59 4q-47 0 -61.5 -28t-14.5 -89v-8zM4674 0v1436h1439v-1436h-1439zM5212 137l352 115v1046l-352 -114v-1047z" />
<glyph unicode="&#xfe;" horiz-adv-x="1144" d="M141 -494v1989h262v-418q0 -133 -10 -209h4q40 79 116.5 124.5t184.5 45.5q180 0 276.5 -124t96.5 -351q0 -270 -138 -423.5t-398 -153.5q-75 0 -132 8v-488h-262zM403 207q65 -19 138 -19q118 0 187 83.5t69 263.5q0 288 -174 288q-99 0 -159.5 -98.5t-60.5 -235.5v-282 z" />
<glyph unicode="&#x152;" horiz-adv-x="1761" d="M68 674q0 166 53.5 305.5t144.5 231.5t211.5 143t255.5 51q107 0 215 -23h699v-223h-484v-340h459v-217h-459v-373h484v-229h-727q-115 -23 -224 -23q-310 0 -469 184t-159 513zM352 702q0 -227 91 -355t272 -128q88 0 182 33v887q-89 26 -176 26q-74 0 -139.5 -29 t-117 -85t-82 -146t-30.5 -203z" />
<glyph unicode="&#x153;" horiz-adv-x="1761" d="M68 492q0 241 144 393.5t376 152.5q103 0 194 -37.5t146 -111.5q121 151 325 151q109 0 192.5 -35t134 -98t76 -144.5t25.5 -178.5q0 -58 -8 -121h-629q-3 -279 279 -279q155 0 295 64l29 -201q-165 -67 -369 -67q-258 0 -379 165q-58 -76 -149.5 -120.5t-206.5 -44.5 q-225 0 -350 125t-125 387zM338 518q0 -315 227 -315q101 0 164.5 80.5t63.5 230.5q0 303 -224 303q-96 0 -163.5 -76t-67.5 -223zM1047 639h374q3 98 -44 153.5t-132 55.5q-81 0 -134 -56.5t-64 -152.5z" />
<glyph unicode="&#x2c6;" horiz-adv-x="872" d="M121 1266l313 278l314 -276l-103 -121l-213 166l-211 -166z" />
<glyph unicode="&#x2dc;" horiz-adv-x="948" d="M109 1290q92 183 249 183q46 0 85.5 -16.5t62 -36t51 -36t53.5 -16.5q62 0 113 92l125 -96q-92 -182 -248 -182q-46 0 -86 16t-63 36t-51.5 36t-53.5 16q-62 0 -113 -92z" />
<glyph unicode="&#x2000;" horiz-adv-x="828" />
<glyph unicode="&#x2001;" horiz-adv-x="1657" />
<glyph unicode="&#x2002;" horiz-adv-x="828" />
<glyph unicode="&#x2003;" horiz-adv-x="1657" />
<glyph unicode="&#x2004;" horiz-adv-x="552" />
<glyph unicode="&#x2005;" horiz-adv-x="414" />
<glyph unicode="&#x2006;" horiz-adv-x="276" />
<glyph unicode="&#x2007;" horiz-adv-x="276" />
<glyph unicode="&#x2008;" horiz-adv-x="207" />
<glyph unicode="&#x2009;" horiz-adv-x="331" />
<glyph unicode="&#x200a;" horiz-adv-x="92" />
<glyph unicode="&#x2010;" horiz-adv-x="684" d="M90 463v211h504v-211h-504z" />
<glyph unicode="&#x2011;" horiz-adv-x="684" d="M90 463v211h504v-211h-504z" />
<glyph unicode="&#x2012;" horiz-adv-x="684" d="M90 463v211h504v-211h-504z" />
<glyph unicode="&#x2013;" d="M0 496v227h1126v-227h-1126z" />
<glyph unicode="&#x2014;" horiz-adv-x="2048" d="M227 496v227h1594v-227h-1594z" />
<glyph unicode="&#x2018;" horiz-adv-x="546" d="M116 1198q53 179 249 350l106 -96q-68 -73 -97 -131.5t-24.5 -101t37.5 -82.5q29 -33 34 -76.5t-11 -81.5t-54.5 -64t-89.5 -26q-87 0 -134 76q-57 93 -16 233z" />
<glyph unicode="&#x2019;" horiz-adv-x="546" d="M72 967q69 74 98.5 132t24.5 100.5t-39 82.5q-28 33 -32.5 76.5t11.5 81.5t54.5 64t89.5 26q87 0 134 -76q58 -94 16 -235q-53 -178 -249 -349z" />
<glyph unicode="&#x201a;" horiz-adv-x="546" d="M72 -258q69 74 98.5 131.5t24.5 100t-39 83.5q-28 33 -32.5 76.5t11.5 81.5t54.5 64t89.5 26q87 0 134 -76q57 -93 16 -233q-53 -179 -249 -350z" />
<glyph unicode="&#x201c;" horiz-adv-x="993" d="M116 1198q53 179 249 350l106 -96q-68 -73 -97 -131.5t-24.5 -101t37.5 -82.5q29 -33 34 -76.5t-11 -81.5t-54.5 -64t-89.5 -26q-87 0 -134 76q-57 93 -16 233zM564 1201q53 177 247 347l109 -96q-68 -73 -97 -131.5t-24.5 -101t37.5 -82.5q28 -33 32.5 -76.5t-11 -81.5 t-53.5 -64t-89 -26q-89 0 -136 77q-57 94 -15 235z" />
<glyph unicode="&#x201d;" horiz-adv-x="993" d="M72 967q69 74 98.5 132t24.5 100.5t-39 82.5q-28 33 -32.5 76.5t11.5 81.5t54.5 64t89.5 26q87 0 134 -76q58 -94 16 -235q-53 -178 -249 -349zM520 967q68 73 97 131.5t24.5 101t-37.5 82.5q-28 33 -32.5 76.5t11 81.5t53.5 64t89 26q89 0 136 -77q57 -94 15 -235 q-53 -178 -247 -348z" />
<glyph unicode="&#x201e;" horiz-adv-x="993" d="M72 -258q69 74 98.5 131.5t24.5 100t-39 83.5q-28 33 -32.5 76.5t11.5 81.5t54.5 64t89.5 26q87 0 134 -76q57 -93 16 -233q-53 -179 -249 -350zM520 -258q68 74 97 131.5t24.5 100t-37.5 83.5q-28 33 -32.5 76.5t11 81.5t53.5 64t89 26q89 0 136 -77q57 -94 15 -235 q-53 -177 -247 -347z" />
<glyph unicode="&#x2022;" horiz-adv-x="866" d="M129 608q0 125 88.5 214t214.5 89t215.5 -89t89.5 -214t-89.5 -214t-215.5 -89t-214.5 89t-88.5 214z" />
<glyph unicode="&#x2026;" horiz-adv-x="1480" d="M96 137q0 66 47 113t113 47t114 -47t48 -113t-48 -113t-114 -47t-113 47t-47 113zM575 137q0 66 47 113t113 47t113 -47t47 -113t-47 -113t-113 -47t-113 47t-47 113zM1053 137q0 66 46.5 113t112.5 47t113 -47t47 -113t-47 -113t-113 -47t-112.5 47t-46.5 113z" />
<glyph unicode="&#x202f;" horiz-adv-x="331" />
<glyph unicode="&#x2039;" horiz-adv-x="638" d="M84 598l235 399l199 -96l-182 -301l186 -297l-207 -98z" />
<glyph unicode="&#x203a;" horiz-adv-x="638" d="M119 899l207 98l231 -393l-238 -399l-198 96l184 301z" />
<glyph unicode="&#x205f;" horiz-adv-x="414" />
<glyph unicode="&#x20ac;" horiz-adv-x="1212" d="M25 451v157h147v39q0 43 4 117h-151v158h170q50 238 209 360.5t397 122.5q94 0 185.5 -21t152.5 -53l-62 -211q-119 68 -278 68q-123 0 -204 -65.5t-110 -200.5h398v-158h-422q0 -11 -1 -35t-1 -37q0 -57 2 -84h422v-157h-402q49 -256 326 -256q64 0 141 23.5t139 62.5 l70 -199q-169 -105 -387 -105q-255 0 -403 119.5t-183 354.5h-159z" />
<glyph unicode="&#x2122;" horiz-adv-x="1411" d="M59 1225v157h459v-157h-133v-418h-186v418h-140zM535 807l92 575h223l70 -252l16 -83l14 79l70 256h225l94 -575h-194l-37 248l-10 96l-19 -88l-67 -256h-174l-68 262l-16 82l-4 -74l-39 -270h-176z" />
<glyph unicode="&#x25fc;" horiz-adv-x="1020" d="M0 0v1020h1020v-1020h-1020z" />
</font>
</defs>
</svg>
